{
  "accessors": [
    {
      "bufferView": 2,
      "componentType": 5126,
      "count": 2556,
      "max": [
        150.92755126953125,
        24.560094833374023,
        21.127038955688477
      ],
      "min": [
        108.38385009765625,
        -18.753711700439453,
        -0.7999340295791626
      ],
      "type": "VEC3"
    },
    {
      "bufferView": 0,
      "componentType": 5125,
      "count": 3146,
      "type": "SCALAR"
    },
    {
      "bufferView": 2,
      "byteOffset": 30672,
      "componentType": 5126,
      "count": 14927,
      "max": [
        170.72779846191406,
        39.8929443359375,
        22.31499671936035
      ],
      "min": [
        100.51177978515625,
        -33.285743713378906,
        -2.329957962036133
      ],
      "type": "VEC3"
    },
    {
      "bufferView": 2,
      "byteOffset": 209796,
      "componentType": 5126,
      "count": 14927,
      "max": [
        0.9999456405639648,
        0.9998051524162292,
        0.9999959468841553
      ],
      "min": [
        -0.9999587535858154,
        -0.9995210766792297,
        -0.9999979734420776
      ],
      "type": "VEC3"
    },
    {
      "bufferView": 1,
      "componentType": 5126,
      "count": 14927,
      "max": [
        0.0,
        0.0
      ],
      "min": [
        0.0,
        0.0
      ],
      "type": "VEC2"
    },
    {
      "bufferView": 0,
      "byteOffset": 12584,
      "componentType": 5125,
      "count": 88074,
      "type": "SCALAR"
    },
    {
      "bufferView": 2,
      "byteOffset": 388920,
      "componentType": 5126,
      "count": 20108,
      "max": [
        153.5409393310547,
        25.551923751831055,
        26.693567276000977
      ],
      "min": [
        107.4061050415039,
        -24.079931259155273,
        1.1822329759597778
      ],
      "type": "VEC3"
    },
    {
      "bufferView": 2,
      "byteOffset": 630216,
      "componentType": 5126,
      "count": 20108,
      "max": [
        0.9998616576194763,
        0.9998194575309753,
        0.999927282333374
      ],
      "min": [
        -0.9997832179069519,
        -0.9997661709785461,
        -0.9191840887069702
      ],
      "type": "VEC3"
    },
    {
      "bufferView": 3,
      "componentType": 5126,
      "count": 20108,
      "max": [
        0.9989405870437622,
        0.9997239112854004,
        0.9999914765357971,
        1.0
      ],
      "min": [
        -0.999982476234436,
        -0.9992098212242126,
        -0.9998972415924072,
        -1.0
      ],
      "type": "VEC4"
    },
    {
      "bufferView": 1,
      "byteOffset": 119416,
      "componentType": 5126,
      "count": 20108,
      "max": [
        0.9880779981613159,
        0.9897069931030273
      ],
      "min": [
        3.400000059627928e-05,
        0.007915000431239605
      ],
      "type": "VEC2"
    },
    {
      "bufferView": 0,
      "byteOffset": 364880,
      "componentType": 5125,
      "count": 111567,
      "type": "SCALAR"
    },
    {
      "bufferView": 2,
      "byteOffset": 871512,
      "componentType": 5126,
      "count": 65532,
      "max": [
        172.95584106445313,
        41.962867736816406,
        24.48767852783203
      ],
      "min": [
        102.32374572753906,
        -34.932491302490234,
        -4.554872989654541
      ],
      "type": "VEC3"
    },
    {
      "bufferView": 2,
      "byteOffset": 1657896,
      "componentType": 5126,
      "count": 65532,
      "max": [
        0.9999898672103882,
        0.9998672008514404,
        0.999985933303833
      ],
      "min": [
        -0.9999785423278809,
        -0.9997612833976746,
        -0.9999966621398926
      ],
      "type": "VEC3"
    },
    {
      "bufferView": 1,
      "byteOffset": 280280,
      "componentType": 5126,
      "count": 65532,
      "max": [
        1.0,
        1.0
      ],
      "min": [
        0.0,
        0.0
      ],
      "type": "VEC2"
    },
    {
      "bufferView": 0,
      "byteOffset": 811148,
      "componentType": 5125,
      "count": 98298,
      "type": "SCALAR"
    },
    {
      "bufferView": 2,
      "byteOffset": 2444280,
      "componentType": 5126,
      "count": 41168,
      "max": [
        172.86871337890625,
        33.56632995605469,
        21.380823135375977
      ],
      "min": [
        98.54198455810547,
        -35.62831497192383,
        -3.1777150630950928
      ],
      "type": "VEC3"
    },
    {
      "bufferView": 2,
      "byteOffset": 2938296,
      "componentType": 5126,
      "count": 41168,
      "max": [
        0.9995986819267273,
        0.9999549388885498,
        0.999990701675415
      ],
      "min": [
        -0.9997339844703674,
        -0.9999029636383057,
        -0.9999611377716064
      ],
      "type": "VEC3"
    },
    {
      "bufferView": 1,
      "byteOffset": 804536,
      "componentType": 5126,
      "count": 41168,
      "max": [
        1.0,
        1.0
      ],
      "min": [
        0.0,
        0.0
      ],
      "type": "VEC2"
    },
    {
      "bufferView": 0,
      "byteOffset": 1204340,
      "componentType": 5125,
      "count": 61752,
      "type": "SCALAR"
    }
  ],
  "asset": {
    "extras": {
      "author": "Per's Scan Collection (https://sketchfab.com/perz_scans)",
      "license": "CC-BY-4.0 (http://creativecommons.org/licenses/by/4.0/)",
      "source": "https://sketchfab.com/3d-models/cloudy-mountain-f61d84c6534d4007accdeac35f433119",
      "title": "Cloudy Mountain"
    },
    "generator": "Sketchfab-12.67.0",
    "version": "2.0"
  },
  "bufferViews": [
    {
      "buffer": 0,
      "byteLength": 1451348,
      "name": "floatBufferViews",
      "target": 34963
    },
    {
      "buffer": 0,
      "byteLength": 1133880,
      "byteOffset": 1451348,
      "byteStride": 8,
      "name": "floatBufferViews",
      "target": 34962
    },
    {
      "buffer": 0,
      "byteLength": 3432312,
      "byteOffset": 2585228,
      "byteStride": 12,
      "name": "floatBufferViews",
      "target": 34962
    },
    {
      "buffer": 0,
      "byteLength": 321728,
      "byteOffset": 6017540,
      "byteStride": 16,
      "name": "floatBufferViews",
      "target": 34962
    }
  ],
  "buffers": [
    {
      "byteLength": 6339268,
      "uri": "scene.bin"
    }
  ],
  "images": [
    {
      "uri": "textures/cliff_baseColor.jpeg"
    },
    {
      "uri": "textures/cliff_metallicRoughness.png"
    },
    {
      "uri": "textures/cliff_normal.jpeg"
    },
    {
      "uri": "textures/cloud_baseColor.png"
    }
  ],
  "materials": [
    {
      "doubleSided": true,
      "name": "base",
      "pbrMetallicRoughness": {
        "metallicFactor": 0.0,
        "roughnessFactor": 0.6
      }
    },
    {
      "doubleSided": true,
      "emissiveFactor": [
        0.3946400481,
        0.3946400481,
        0.3946400481
      ],
      "emissiveTexture": {
        "index": 0
      },
      "name": "cliff",
      "normalTexture": {
        "index": 2
      },
      "pbrMetallicRoughness": {
        "baseColorTexture": {
          "index": 0
        },
        "metallicFactor": 0.0,
        "metallicRoughnessTexture": {
          "index": 1
        }
      }
    },
    {
      "alphaMode": "BLEND",
      "name": "cloud",
      "pbrMetallicRoughness": {
        "baseColorFactor": [
          1.0,
          1.0,
          1.0,
          0.8057138399423526
        ],
        "baseColorTexture": {
          "index": 3
        },
        "metallicFactor": 0.0
      }
    }
  ],
  "meshes": [
    {
      "name": "Object_0",
      "primitives": [
        {
          "attributes": {
            "POSITION": 0
          },
          "indices": 1,
          "material": 0,
          "mode": 1
        }
      ]
    },
    {
      "name": "Object_1",
      "primitives": [
        {
          "attributes": {
            "NORMAL": 3,
            "POSITION": 2,
            "TEXCOORD_0": 4
          },
          "indices": 5,
          "material": 0,
          "mode": 4
        }
      ]
    },
    {
      "name": "Object_2",
      "primitives": [
        {
          "attributes": {
            "NORMAL": 7,
            "POSITION": 6,
            "TANGENT": 8,
            "TEXCOORD_0": 9
          },
          "indices": 10,
          "material": 1,
          "mode": 4
        }
      ]
    },
    {
      "name": "Object_3",
      "primitives": [
        {
          "attributes": {
            "NORMAL": 12,
            "POSITION": 11,
            "TEXCOORD_0": 13
          },
          "indices": 14,
          "material": 2,
          "mode": 4
        }
      ]
    },
    {
      "name": "Object_4",
      "primitives": [
        {
          "attributes": {
            "NORMAL": 16,
            "POSITION": 15,
            "TEXCOORD_0": 17
          },
          "indices": 18,
          "material": 2,
          "mode": 4
        }
      ]
    }
  ],
  "nodes": [
    {
      "children": [
        1
      ],
      "matrix": [
        1.0,
        0.0,
        0.0,
        0.0,
        0.0,
        2.220446049250313e-16,
        -1.0,
        0.0,
        0.0,
        1.0,
        2.220446049250313e-16,
        0.0,
        0.0,
        0.0,
        0.0,
        1.0
      ],
      "name": "Sketchfab_model"
    },
    {
      "children": [
        2,
        3,
        4,
        5,
        6
      ],
      "name": "cloudssssssssssssssss13.obj.cleaner.materialmerger.gles"
    },
    {
      "mesh": 0,
      "name": "Object_2"
    },
    {
      "mesh": 1,
      "name": "Object_3"
    },
    {
      "mesh": 2,
      "name": "Object_4"
    },
    {
      "mesh": 3,
      "name": "Object_5"
    },
    {
      "mesh": 4,
      "name": "Object_6"
    }
  ],
  "samplers": [
    {
      "magFilter": 9729,
      "minFilter": 9987,
      "wrapS": 10497,
      "wrapT": 10497
    }
  ],
  "scene": 0,
  "scenes": [
    {
      "name": "Sketchfab_Scene",
      "nodes": [
        0
      ]
    }
  ],
  "textures": [
    {
      "sampler": 0,
      "source": 0
    },
    {
      "sampler": 0,
      "source": 1
    },
    {
      "sampler": 0,
      "source": 2
    },
    {
      "sampler": 0,
      "source": 3
    }
  ]
}
